<svg width="409" height="188" viewBox="0 0 409 188" fill="none" xmlns="http://www.w3.org/2000/svg" preserveAspectRatio="none">
<rect x="212" y="55" width="69" height="3" rx="1.5" fill="#1562AF" fill-opacity="0.14"/>
<rect x="99" y="55" width="106" height="3" rx="1.5" fill="#1562AF" fill-opacity="0.14"/>
<rect y="55" width="92" height="3" rx="1.5" fill="#1562AF" fill-opacity="0.14"/>
<rect x="287" y="55" width="77" height="3" rx="1.5" fill="#1562AF" fill-opacity="0.34"/>
<rect x="328" y="66" width="36" height="3" rx="1.5" fill="#1562AF" fill-opacity="0.14"/>
<rect x="184" y="66" width="137" height="3" rx="1.5" fill="#1562AF" fill-opacity="0.14"/>
<rect x="72" y="66" width="105" height="3" rx="1.5" fill="#1562AF" fill-opacity="0.34"/>
<rect y="66" width="65" height="3" rx="1.5" fill="#1562AF" fill-opacity="0.14"/>
<rect width="144" height="3" rx="1.5" fill="#1562AF" fill-opacity="0.14"/>
<rect x="151" width="136" height="3" rx="1.5" fill="#1562AF" fill-opacity="0.34"/>
<rect width="46" height="3" rx="1.5" transform="matrix(-1 0 0 1 340 0)" fill="#1562AF" fill-opacity="0.14"/>
<rect x="122" y="11" width="111" height="3" rx="1.5" fill="#1562AF" fill-opacity="0.14"/>
<rect x="122" y="152" width="111" height="3" rx="1.5" fill="#1562AF" fill-opacity="0.14"/>
<rect y="11" width="115" height="3" rx="1.5" fill="#1562AF" fill-opacity="0.34"/>
<rect y="152" width="115" height="3" rx="1.5" fill="#1562AF" fill-opacity="0.34"/>
<rect x="275" y="11" width="28" height="3" rx="1.5" fill="#1562AF" fill-opacity="0.34"/>
<rect x="240" y="11" width="28" height="3" rx="1.5" fill="#1562AF" fill-opacity="0.14"/>
<rect x="240" y="152" width="37" height="3" rx="1.5" fill="#1562AF" fill-opacity="0.14"/>
<rect x="310" y="11" width="83" height="3" rx="1.5" fill="#1562AF" fill-opacity="0.14"/>
<rect x="284" y="22" width="89" height="3" rx="1.5" fill="#1562AF" fill-opacity="0.14"/>
<rect x="284" y="163" width="19" height="3" rx="1.5" fill="#1562AF" fill-opacity="0.14"/>
<rect x="134" y="22" width="143" height="3" rx="1.5" fill="#1562AF" fill-opacity="0.34"/>
<rect x="134" y="163" width="143" height="3" rx="1.5" fill="#1562AF" fill-opacity="0.34"/>
<rect x="95" y="22" width="32" height="3" rx="1.5" fill="#1562AF" fill-opacity="0.14"/>
<rect x="95" y="163" width="32" height="3" rx="1.5" fill="#1562AF" fill-opacity="0.14"/>
<rect y="22" width="88" height="3" rx="1.5" fill="#1562AF" fill-opacity="0.14"/>
<rect y="163" width="88" height="3" rx="1.5" fill="#1562AF" fill-opacity="0.14"/>
<rect x="349" y="33" width="60" height="3" rx="1.5" fill="#1562AF" fill-opacity="0.34"/>
<rect x="201" y="33" width="142" height="3" rx="1.5" fill="#1562AF" fill-opacity="0.14"/>
<rect x="201" y="174" width="51" height="3" rx="1.5" fill="#1562AF" fill-opacity="0.14"/>
<rect x="259" y="174" width="62" height="3" rx="1.5" fill="#1562AF" fill-opacity="0.34"/>
<rect x="163" y="33" width="31" height="3" rx="1.5" fill="#1562AF" fill-opacity="0.14"/>
<rect x="106" y="33" width="51" height="3" rx="1.5" fill="#1562AF" fill-opacity="0.14"/>
<rect x="106" y="174" width="88" height="3" rx="1.5" fill="#1562AF" fill-opacity="0.14"/>
<rect x="32" y="33" width="67" height="3" rx="1.5" fill="#1562AF" fill-opacity="0.34"/>
<rect y="174" width="99" height="3" rx="1.5" fill="#1562AF" fill-opacity="0.34"/>
<rect y="33" width="25" height="3" rx="1.5" fill="#1562AF" fill-opacity="0.14"/>
<rect y="44" width="72" height="3" rx="1.5" fill="#1562AF" fill-opacity="0.34"/>
<rect y="185" width="72" height="3" rx="1.5" fill="#1562AF" fill-opacity="0.14"/>
<rect x="79" y="44" width="97" height="3" rx="1.5" fill="#1562AF" fill-opacity="0.14"/>
<rect x="79" y="185" width="55" height="3" rx="1.5" fill="#1562AF" fill-opacity="0.34"/>
</svg>
