<svg width="21" height="36" viewBox="0 0 21 36" fill="none" xmlns="http://www.w3.org/2000/svg">
<path d="M1.76258 4.23769C1.07922 3.55408 1.07914 2.44622 1.76235 1.76252C1.76241 1.76246 1.76247 1.7624 1.76253 1.76233C1.76256 1.76231 1.76258 1.76229 1.7626 1.76226C2.44605 1.07953 3.55388 1.07945 4.23756 1.76227C4.2376 1.76231 4.23764 1.76235 4.23768 1.76239C4.23774 1.76245 4.23779 1.7625 4.23785 1.76256L19.2352 16.7646L19.2353 16.7647C19.919 17.4483 19.919 18.5516 19.2353 19.2353L19.2353 19.2353L11.7364 26.7353L4.23764 34.2353C3.55396 34.9189 2.44609 34.9189 1.7626 34.2353C1.07913 33.5517 1.07913 32.4483 1.7626 31.7646L1.76263 31.7646L14.9914 18.5302L15.5214 17.9999L14.9913 17.4697L1.7626 4.23771M1.76258 4.23769L1.23219 4.76795L1.7626 4.23771M1.76258 4.23769C1.76259 4.23769 1.7626 4.2377 1.7626 4.23771M1.76258 4.23769L1.7626 4.23771" stroke="#3294F8" stroke-width="1.5"/>
</svg>
